<?xml version="1.0" ?><!DOCTYPE svg  PUBLIC '-//W3C//DTD SVG 1.1//EN'  'http://www.w3.org/Graphics/SVG/1.1/DTD/svg11.dtd'><svg enable-background="new 0 0 160 80" id="Layer_1" version="1.1" viewBox="0 0 160 80" xml:space="preserve" xmlns="http://www.w3.org/2000/svg" xmlns:xlink="http://www.w3.org/1999/xlink"><g><rect height="6" width="6" x="65" y="6"/></g><g><rect height="6" width="6" x="71" y="6"/></g><g><rect height="6" width="6" x="77" y="6"/></g><g><rect height="6" width="6" x="83" y="6"/></g><g><rect height="6" width="6" x="65" y="12"/></g><g><rect height="6" width="6" x="71" y="12"/></g><g><rect height="6" width="6" x="77" y="12"/></g><g><rect height="6" width="6" x="89" y="12"/></g><g><rect height="6" width="6" x="59" y="12"/></g><g><rect height="6" width="6" x="47" y="36"/></g><g><rect height="6" width="6" x="47" y="30"/></g><g><rect height="6" width="6" x="53" y="18"/></g><g><rect height="6" width="6" x="71" y="18"/></g><g><rect height="6" width="6" x="77" y="18"/></g><g><rect height="6" width="6" x="83" y="18"/></g><g><rect height="6" width="6" x="59" y="18"/></g><g><rect height="6" width="6" x="89" y="18"/></g><g><rect height="6" width="6" x="101" y="24"/></g><g><rect height="6" width="6" x="101" y="36"/></g><g><rect height="6" width="6" x="95" y="48"/></g><g><rect height="6" width="6" x="95" y="6"/></g><g><rect height="6" width="6" x="101" y="12"/></g><g><rect height="6" width="6" x="95" y="60"/></g><g><rect height="6" width="6" x="101" y="54"/></g><g><rect height="6" width="6" x="113" y="24"/></g><g><rect height="6" width="6" x="113" y="30"/></g><g><rect height="6" width="6" x="113" y="36"/></g><g><rect height="6" width="6" x="113" y="42"/></g><g><rect height="6" width="6" x="107" y="48"/></g><g><rect height="6" width="6" x="107" y="18"/></g><g><rect height="6" width="6" x="89" y="6"/></g><g><rect height="6" width="6" x="95" y="12"/></g><g><rect height="6" width="6" x="89" y="60"/></g><g><rect height="6" width="6" x="95" y="54"/></g><g><rect height="6" width="6" x="89" y="54"/></g><g><rect height="6" width="6" x="107" y="24"/></g><g><rect height="6" width="6" x="107" y="30"/></g><g><rect height="6" width="6" x="107" y="36"/></g><g><rect height="6" width="6" x="107" y="42"/></g><g><rect height="6" width="6" x="101" y="48"/></g><g><rect height="6" width="6" x="101" y="18"/></g><g><rect height="6" width="6" x="53" y="24"/></g><g><rect height="6" width="6" x="77" y="24"/></g><g><rect height="6" width="6" x="83" y="24"/></g><g><rect height="6" width="6" x="89" y="24"/></g><g><rect height="6" width="6" x="95" y="24"/></g><g><rect height="6" width="6" x="53" y="30"/></g><g><rect height="6" width="6" x="71" y="30"/></g><g><rect height="6" width="6" x="77" y="30"/></g><g><rect height="6" width="6" x="83" y="30"/></g><g><rect height="6" width="6" x="59" y="30"/></g><g><rect height="6" width="6" x="89" y="30"/></g><g><rect height="6" width="6" x="95" y="30"/></g><g><rect height="6" width="6" x="53" y="36"/></g><g><rect height="6" width="6" x="65" y="36"/></g><g><rect height="6" width="6" x="71" y="36"/></g><g><rect height="6" width="6" x="77" y="36"/></g><g><rect height="6" width="6" x="83" y="36"/></g><g><rect height="6" width="6" x="59" y="36"/></g><g><rect height="6" width="6" x="89" y="36"/></g><g><rect height="6" width="6" x="95" y="36"/></g><g><rect height="6" width="6" x="53" y="42"/></g><g><rect height="6" width="6" x="65" y="42"/></g><g><rect height="6" width="6" x="59" y="42"/></g><g><rect height="6" width="6" x="89" y="42"/></g><g><rect height="6" width="6" x="95" y="42"/></g></svg>