<svg id="Layer_1" version="1.1" viewBox="0 0 160 80" xml:space="preserve" xmlns="http://www.w3.org/2000/svg"><path d="M65 6h6v6h-6zM71 6h6v6h-6zM77 6h6v6h-6zM83 6h6v6h-6zM65 12h6v6h-6zM71 12h6v6h-6zM77 12h6v6h-6zM89 12h6v6h-6zM59 12h6v6h-6zM47 36h6v6h-6zM47 30h6v6h-6zM53 18h6v6h-6zM71 18h6v6h-6zM77 18h6v6h-6zM83 18h6v6h-6zM59 18h6v6h-6zM89 18h6v6h-6zM101 24h6v6h-6zM101 36h6v6h-6zM95 48h6v6h-6zM95 6h6v6h-6zM101 12h6v6h-6zM95 60h6v6h-6zM101 54h6v6h-6zM113 24h6v6h-6zM113 30h6v6h-6zM113 36h6v6h-6zM113 42h6v6h-6zM107 48h6v6h-6zM107 18h6v6h-6zM89 6h6v6h-6zM95 12h6v6h-6zM89 60h6v6h-6zM95 54h6v6h-6zM89 54h6v6h-6zM107 24h6v6h-6zM107 30h6v6h-6zM107 36h6v6h-6zM107 42h6v6h-6zM101 48h6v6h-6zM101 18h6v6h-6zM53 24h6v6h-6zM77 24h6v6h-6zM83 24h6v6h-6zM89 24h6v6h-6zM95 24h6v6h-6zM53 30h6v6h-6zM71 30h6v6h-6zM77 30h6v6h-6zM83 30h6v6h-6zM59 30h6v6h-6zM89 30h6v6h-6zM95 30h6v6h-6zM53 36h6v6h-6zM65 36h6v6h-6zM71 36h6v6h-6zM77 36h6v6h-6zM83 36h6v6h-6zM59 36h6v6h-6zM89 36h6v6h-6zM95 36h6v6h-6zM53 42h6v6h-6zM65 42h6v6h-6zM59 42h6v6h-6zM89 42h6v6h-6zM95 42h6v6h-6z"/></svg>